<svg xmlns="http://www.w3.org/2000/svg" xmlns:svg="http://www.w3.org/2000/svg" xmlns:xlink="http://www.w3.org/1999/xlink" id="svg2" width="44" height="44" version="1.0"><defs id="defs4"><linearGradient id="linearGradient3240"><stop id="stop3242" offset="0" style="stop-color:#f69b89;stop-opacity:1"/><stop id="stop3250" offset=".31" style="stop-color:#ec5131;stop-opacity:1"/><stop id="stop3248" offset=".5" style="stop-color:#b2311a;stop-opacity:1"/><stop id="stop3252" offset=".75" style="stop-color:#781301;stop-opacity:1"/><stop id="stop3244" offset="1" style="stop-color:#5b0e00;stop-opacity:1"/></linearGradient><radialGradient id="radialGradient3246" cx="-264.077" cy="471.295" r="14.983" fx="-264.077" fy="471.295" gradientTransform="matrix(-1.2276319,-3.7552324e-6,1.4983775e-7,-1.0055106,-588.2673,948.84016)" gradientUnits="userSpaceOnUse" xlink:href="#linearGradient3240"/><radialGradient id="radialGradient3258" cx="-264.077" cy="471.295" r="14.983" fx="-264.077" fy="471.295" gradientTransform="matrix(-1.2276319,-3.7552324e-6,1.4983775e-7,-1.0055106,-588.2673,956.59543)" gradientUnits="userSpaceOnUse" xlink:href="#linearGradient3240"/><radialGradient id="radialGradient3269" cx="-264.077" cy="471.295" r="14.983" fx="-264.077" fy="471.295" gradientTransform="matrix(-1.2276319,-3.7552324e-6,1.4983775e-7,-1.0055106,-588.2673,956.59543)" gradientUnits="userSpaceOnUse" xlink:href="#linearGradient3240"/><radialGradient id="radialGradient3271" cx="-264.077" cy="471.295" r="14.983" fx="-264.077" fy="471.295" gradientTransform="matrix(-1.2276319,-3.7552324e-6,1.4983775e-7,-1.0055106,-588.2673,948.84016)" gradientUnits="userSpaceOnUse" xlink:href="#linearGradient3240"/></defs><g id="layer1" transform="translate(293.42856,-456.07648)"><g id="g3264" transform="translate(-1.0959925,-1.3623321)"><path id="path3254" d="M -255.84411,479.44293 L -255.84411,487.19506 C -255.84411,491.56277 -262.33494,495.10757 -270.33257,495.10757 C -278.33019,495.10757 -284.82102,491.56277 -284.82102,487.19506 L -284.82102,479.44293 L -255.84411,479.44293 z" style="fill:url(#radialGradient3269);fill-opacity:1;fill-rule:evenodd;stroke:#000;stroke-width:.98981297;stroke-linecap:square;stroke-linejoin:miter;stroke-miterlimit:4;stroke-dashoffset:0;stroke-opacity:1"/><path id="path3225" d="M -255.84411,471.68766 L -255.84411,479.43979 C -255.84411,483.8075 -262.33494,487.3523 -270.33257,487.3523 C -278.33019,487.3523 -284.82102,483.8075 -284.82102,479.43979 L -284.82102,471.68766 L -255.84411,471.68766 z" style="fill:url(#radialGradient3271);fill-opacity:1;fill-rule:evenodd;stroke:#000;stroke-width:.98981297;stroke-linecap:square;stroke-linejoin:miter;stroke-miterlimit:4;stroke-dashoffset:0;stroke-opacity:1"/><path id="path2453" d="M 37.637911,15.718104 A 14.488457,7.7521262 0 1 1 8.6609974,15.718104 A 14.488457,7.7521262 0 1 1 37.637911,15.718104 z" transform="matrix(1,0,0,1.0206897,-293.48202,455.64435)" style="opacity:1;fill:#e52602;fill-opacity:1;fill-rule:evenodd;stroke:#000;stroke-width:.98981297;stroke-linecap:square;stroke-linejoin:miter;stroke-miterlimit:4;stroke-dasharray:none;stroke-dashoffset:0;stroke-opacity:1"/></g></g></svg>